<svg id="Layer_1" data-name="Layer 1" xmlns="http://www.w3.org/2000/svg" viewBox="0 0 195.33 43.46"><defs><style>.cls-1{fill:#79797b;}.cls-2{fill:#e9222f;}.cls-3{fill:none;}.cls-4{fill:#2d358b;}</style></defs><title>EconetLogo</title><path class="cls-1" d="M526.23,783.54a3,3,0,0,0,1.24.73q.72.23,1.46.38a7.83,7.83,0,0,1,1.25.35c.34.13.51.3.51.49q0,.63-1.51.63a1.6,1.6,0,0,1-1.31-.44.92.92,0,0,0-.75-.36h-1a.39.39,0,0,0-.4.41q0,1.88,3.61,1.88T533,785.5a1.71,1.71,0,0,0-.51-1.27,3,3,0,0,0-1.24-.73,14.39,14.39,0,0,0-1.47-.38,7.36,7.36,0,0,1-1.24-.34c-.34-.13-.51-.3-.51-.49q0-.63,1.3-.63a1.61,1.61,0,0,1,1.31.45.93.93,0,0,0,.76.35h1a.38.38,0,0,0,.4-.4q0-1.89-3.6-1.89-3.42,0-3.42,2.12a1.72,1.72,0,0,0,.51,1.26m-8,0a3,3,0,0,0,1.24.73,15,15,0,0,0,1.46.38,7.91,7.91,0,0,1,1.25.35c.34.13.51.3.51.49q0,.63-1.51.63a1.6,1.6,0,0,1-1.31-.44.92.92,0,0,0-.75-.36h-1a.4.4,0,0,0-.29.11.41.41,0,0,0-.11.3q0,1.88,3.61,1.88t3.62-2.12a1.72,1.72,0,0,0-.51-1.27,3,3,0,0,0-1.24-.73,14.16,14.16,0,0,0-1.46-.38,7.33,7.33,0,0,1-1.25-.34q-.51-.2-.51-.49,0-.63,1.3-.63a1.62,1.62,0,0,1,1.31.45.92.92,0,0,0,.76.35h1a.38.38,0,0,0,.4-.4q0-1.89-3.6-1.89-3.42,0-3.42,2.12a1.71,1.71,0,0,0,.51,1.26M513,781.65c1,0,1.48.52,1.52,1.55h-3.06q.08-1.55,1.53-1.55m0,6q3.59,0,3.59-1.85a.44.44,0,0,0-.11-.31.39.39,0,0,0-.29-.12h-1a.94.94,0,0,0-.75.36,1.59,1.59,0,0,1-1.29.44,1.82,1.82,0,0,1-1.22-.34,1.56,1.56,0,0,1-.46-1.09h4.95a.39.39,0,0,0,.29-.12.41.41,0,0,0,.11-.3v-.38a3.64,3.64,0,0,0-1-2.77,4.6,4.6,0,0,0-5.64,0,3.65,3.65,0,0,0-1,2.79,3.6,3.6,0,0,0,1,2.76,4,4,0,0,0,2.83.95m-7.2-.24a.4.4,0,0,0,.29.11h1.47a.4.4,0,0,0,.28-.11.39.39,0,0,0,.11-.29v-8.61a.39.39,0,0,0-.11-.29.38.38,0,0,0-.29-.11h-1.47a.39.39,0,0,0-.4.41v8.61a.4.4,0,0,0,.11.29m-5.15-5.73q1.45,0,1.52,1.55h-3.06q.08-1.55,1.54-1.55m0,6q3.6,0,3.6-1.85a.44.44,0,0,0-.11-.31.39.39,0,0,0-.29-.12h-1a1,1,0,0,0-.76.36,1.58,1.58,0,0,1-1.29.44,1.82,1.82,0,0,1-1.22-.34,1.56,1.56,0,0,1-.46-1.09h4.95a.4.4,0,0,0,.29-.12.42.42,0,0,0,.11-.3v-.38a3.64,3.64,0,0,0-1-2.77,4.6,4.6,0,0,0-5.64,0,3.66,3.66,0,0,0-1,2.79,3.59,3.59,0,0,0,1,2.76,4,4,0,0,0,2.82.95m-9.72-.24a.39.39,0,0,0,.29.11h1.47a.39.39,0,0,0,.28-.11.39.39,0,0,0,.12-.29v-4.22a2.25,2.25,0,0,1,1.69-1l.52,0,.49,0H496a.4.4,0,0,0,.29-.11.37.37,0,0,0,.12-.28v-1a.38.38,0,0,0-.12-.28.39.39,0,0,0-.29-.11,4.75,4.75,0,0,0-1.63.23,5.37,5.37,0,0,0-1.29.71v-.41a.39.39,0,0,0-.4-.4h-1.47a.4.4,0,0,0-.29.11.4.4,0,0,0-.11.29v6.39a.4.4,0,0,0,.11.29m-3.92,0a.39.39,0,0,0,.29.11h1.47a.39.39,0,0,0,.28-.11.38.38,0,0,0,.11-.29v-6.2a.39.39,0,0,0-.11-.28.38.38,0,0,0-.29-.11h-1.47a.4.4,0,0,0-.29.11.39.39,0,0,0-.11.29v6.2a.39.39,0,0,0,.11.29m.07-7.88a.74.74,0,0,0,.55.21h.81a.73.73,0,0,0,.55-.21.77.77,0,0,0,.2-.56v-.23a.77.77,0,0,0-.2-.57.74.74,0,0,0-.55-.21h-.81a.74.74,0,0,0-.56.21.78.78,0,0,0-.2.56v.23a.77.77,0,0,0,.2.56m-13,7.32a.93.93,0,0,0,.94.67h1a.89.89,0,0,0,.93-.67l1.6-5.06,1.6,5.06a.87.87,0,0,0,.91.67H482a.93.93,0,0,0,.95-.67l2.93-8.2a.36.36,0,0,0,0-.15.35.35,0,0,0-.09-.23.46.46,0,0,0-.37-.17H484a.74.74,0,0,0-.48.18,1,1,0,0,0-.31.45l-1.73,5.21-1.6-5.2a.76.76,0,0,0-.77-.64h-1.19a.77.77,0,0,0-.77.62l-1.6,5.2-1.73-5.2a1,1,0,0,0-.31-.45.72.72,0,0,0-.47-.18h-1.44a.46.46,0,0,0-.37.17.34.34,0,0,0-.09.23.66.66,0,0,0,0,.15Z" transform="translate(-355 -744.16)"/><path class="cls-2" d="M550.33,755.36c0-4.25-6.68-8.1-17.49-10.89,5.59,2.29,8.85,5.07,8.9,8.11.14,8.49-24.86,15.78-55.84,16.29-16.45.27-31.27-1.43-41.58-4.35q-1.65-.31-3.26-.65c10.68,4.14,28.93,6.87,49.66,6.87,32.92,0,59.62-6.89,59.62-15.39" transform="translate(-355 -744.16)"/><rect class="cls-3" width="195.33" height="43.46"/><polygon class="cls-4" points="0 0.34 0 19.39 24.21 19.39 24.21 14.82 8.88 14.82 8.88 11.91 21.77 11.91 21.77 7.53 8.88 7.53 8.88 4.91 23.94 4.91 23.94 0.34 0 0.34"/><path class="cls-4" d="M400.29,744.69a13.9,13.9,0,0,1,4.2,1.56,7.8,7.8,0,0,1,2.69,2.56,6.53,6.53,0,0,1,1,3.53h-8.49a3.41,3.41,0,0,0-.32-1.49,3.05,3.05,0,0,0-.93-1.13,4.54,4.54,0,0,0-1.52-.73,8.95,8.95,0,0,0-4.51.07,4.33,4.33,0,0,0-1.62.91,3.39,3.39,0,0,0-.91,1.39,5.33,5.33,0,0,0-.29,1.78v1.77a5.15,5.15,0,0,0,.3,1.79,3.47,3.47,0,0,0,.92,1.39,4.36,4.36,0,0,0,1.6.91,7.37,7.37,0,0,0,2.33.32,6.78,6.78,0,0,0,3.93-.93,3,3,0,0,0,1.3-2.56h8.22a6.67,6.67,0,0,1-.9,3.47,7.25,7.25,0,0,1-2.6,2.53,13.56,13.56,0,0,1-4.19,1.54,27.73,27.73,0,0,1-5.64.52q-7.1,0-10.73-2.49a9.29,9.29,0,0,1,0-14.75q3.64-2.49,10.73-2.49a26.12,26.12,0,0,1,5.48.53" transform="translate(-355 -744.16)"/><path class="cls-4" d="M423.62,749.06a5.3,5.3,0,0,0-1.81.91,3.69,3.69,0,0,0-1.09,1.39,4.3,4.3,0,0,0-.36,1.78v1.77a4.3,4.3,0,0,0,.36,1.78,3.67,3.67,0,0,0,1.09,1.39,5.26,5.26,0,0,0,1.81.91,10.36,10.36,0,0,0,5.14,0,5.38,5.38,0,0,0,1.84-.91,3.64,3.64,0,0,0,1.1-1.39,4.3,4.3,0,0,0,.36-1.78v-1.77a4.3,4.3,0,0,0-.36-1.78,3.66,3.66,0,0,0-1.1-1.39,5.43,5.43,0,0,0-1.84-.91,10.36,10.36,0,0,0-5.14,0m8.89-4.26a14.4,14.4,0,0,1,4.71,1.87,8.53,8.53,0,0,1,2.93,3.08,9.59,9.59,0,0,1,0,8.57,8.53,8.53,0,0,1-2.93,3.08,14.52,14.52,0,0,1-4.71,1.86,32.08,32.08,0,0,1-12.65,0,14.5,14.5,0,0,1-4.7-1.86,8.44,8.44,0,0,1-2.92-3.08,9.65,9.65,0,0,1,0-8.57,8.43,8.43,0,0,1,2.92-3.08,14.39,14.39,0,0,1,4.7-1.87,32.08,32.08,0,0,1,12.65,0" transform="translate(-355 -744.16)"/><polygon class="cls-4" points="109.38 0.34 109.38 9.72 97.74 0.34 89.98 0.34 89.98 19.39 98.14 19.39 98.14 10.14 109.77 19.39 117.53 19.39 117.53 0.34 109.38 0.34"/><polygon class="cls-4" points="123.02 0.34 123.02 19.39 147.23 19.39 147.23 14.82 131.9 14.82 131.9 11.91 144.79 11.91 144.79 7.53 131.9 7.53 131.9 4.91 146.95 4.91 146.95 0.34 123.02 0.34"/><polygon class="cls-4" points="151 0.34 151 5.21 160.1 5.21 160.1 19.39 169 19.39 169 5.21 178.04 5.21 178.04 0.34 151 0.34"/></svg>